<svg width="50" height="62" viewBox="0 0 50 62" fill="none" xmlns="http://www.w3.org/2000/svg">
<path d="M15.1079 25.7456C15.1079 24.916 14.4292 24.2373 13.5997 24.2373H1.50828C0.678726 24.2373 0 24.916 0 25.7456C0 26.5751 0.678726 27.2539 1.50828 27.2539H13.5997C14.4292 27.2539 15.1079 26.5751 15.1079 25.7456Z" fill="white"/>
<path d="M48.1393 24.2373H36.048C35.2184 24.2373 34.5397 24.916 34.5397 25.7456C34.5397 26.5751 35.2184 27.2539 36.048 27.2539H48.1393C48.9689 27.2539 49.6476 26.5751 49.6476 25.7456C49.6476 24.916 48.9815 24.2373 48.1393 24.2373Z" fill="white"/>
<path d="M24.8238 16.0298C25.6534 16.0298 26.3321 15.3511 26.3321 14.5215V2.43016C26.3321 1.6006 25.6534 0.921875 24.8238 0.921875C23.9943 0.921875 23.3156 1.6006 23.3156 2.43016V14.5215C23.3156 15.3511 23.9943 16.0298 24.8238 16.0298Z" fill="white"/>
<path d="M32.7548 19.3228C33.1445 19.3228 33.5215 19.172 33.8232 18.8829L42.3827 10.3234C42.9734 9.7327 42.9734 8.77745 42.3827 8.18671C41.792 7.59597 40.8367 7.59597 40.246 8.18671L31.6865 16.7462C31.0957 17.3369 31.0957 18.2922 31.6865 18.8829C31.9881 19.172 32.3778 19.3228 32.7548 19.3228Z" fill="white"/>
<path d="M15.8244 18.8829C16.1135 19.172 16.5031 19.3228 16.8928 19.3228C17.2824 19.3228 17.6595 19.172 17.9611 18.8829C18.5519 18.2922 18.5519 17.3369 17.9611 16.7462L9.40163 8.18671C8.81088 7.59597 7.85564 7.59597 7.2649 8.18671C6.67415 8.77745 6.67415 9.7327 7.2649 10.3234L15.8244 18.8829Z" fill="white"/>
<path d="M42.9483 35.2602C41.8046 34.2799 40.3591 33.7394 38.8886 33.7394H37.5185H32.5915H30.2536V27.6434C30.2536 24.7274 29.3864 22.6032 27.6644 21.3338C24.9495 19.3479 21.2668 20.4665 21.1034 20.5168C20.475 20.7179 20.0476 21.2961 20.0476 21.9497V29.3025C20.0476 31.5398 18.9792 33.4377 16.8551 34.9586C15.2462 36.1149 13.5997 36.6428 13.386 36.7057L13.2352 36.7434C12.6696 36.1024 11.84 35.7002 10.9099 35.7002H5.17846C3.46907 35.7002 2.07391 37.0953 2.07391 38.8047V57.608C2.07391 59.3173 3.46907 60.7125 5.17846 60.7125H10.9351C11.6892 60.7125 12.3931 60.436 12.921 59.9835C14.0773 61.1147 15.6484 61.806 17.3453 61.806H23.0642H23.6549H35.3567C37.1666 61.806 38.7629 61.3661 39.9821 60.5491C41.5406 59.4933 42.5084 57.8216 42.7849 55.6849L45.1102 41.2305C45.4747 38.9932 44.6452 36.7057 42.9483 35.2602ZM11.0231 57.608C11.0231 57.6582 10.9853 57.6959 10.9351 57.6959H5.17846C5.12818 57.6959 5.09048 57.6582 5.09048 57.608V38.8047C5.09048 38.7544 5.12818 38.7167 5.17846 38.7167H10.9351C10.9853 38.7167 11.0231 38.7544 11.0231 38.8047V57.608ZM42.1314 40.7655L39.8061 55.245C39.8061 55.2575 39.8061 55.2827 39.7935 55.3078C39.693 56.1751 39.3662 58.802 35.3567 58.802H23.6549H23.0642H17.3453C15.7364 58.802 14.3287 57.5954 14.0773 55.9991C14.0648 55.9363 14.0522 55.8734 14.0396 55.8232V39.6594L14.1276 39.6343C14.1527 39.6343 14.1653 39.6217 14.1904 39.6217C14.2784 39.5966 16.4152 38.9932 18.5393 37.4724C21.493 35.3734 23.0642 32.5453 23.0642 29.3025V23.194C23.8937 23.106 25.0375 23.1437 25.8796 23.7596C26.7846 24.4258 27.2371 25.7329 27.2371 27.6309V35.2351C27.2371 36.0647 27.9158 36.7434 28.7454 36.7434H32.5915H37.5185H38.8886C39.6427 36.7434 40.3843 37.0325 40.9876 37.5352C41.8925 38.3145 42.3199 39.5463 42.1314 40.7655Z" fill="white"/>
</svg>
