<svg width="54" height="33" viewBox="0 0 54 33" fill="none" xmlns="http://www.w3.org/2000/svg">
<path d="M50.9222 8.26967C49.3426 6.55838 47.0927 5.61297 44.5916 5.61297H38.5722V2.35793C38.5722 1.5681 37.926 0.921875 37.1361 0.921875H8.46299C7.67316 0.921875 7.02694 1.5681 7.02694 2.35793V7.36017H1.43831C0.648481 7.36017 0.0022583 8.00639 0.0022583 8.79622C0.0022583 9.58605 0.648481 10.2323 1.43831 10.2323H8.42709C8.43905 10.2323 8.45102 10.2323 8.46299 10.2323C8.46299 10.2323 8.46299 10.2323 8.47496 10.2323C9.26478 10.2323 9.91101 9.58605 9.91101 8.79622V3.79398H35.7121V7.04902V26.3041H22.1892C22.1294 26.3041 22.0696 26.3041 22.0097 26.316C21.2917 24.5449 19.5565 23.2884 17.534 23.2884C15.4996 23.2884 13.7644 24.5569 13.0583 26.34C12.9506 26.316 12.8549 26.3041 12.7472 26.3041H9.91101V21.2899C9.91101 20.5 9.26478 19.8538 8.47496 19.8538C8.45102 19.8538 8.42709 19.8538 8.40315 19.8538C8.37922 19.8538 8.36725 19.8538 8.34332 19.8538H1.43831C0.648481 19.8538 0.0022583 20.5 0.0022583 21.2899C0.0022583 22.0797 0.648481 22.7259 1.43831 22.7259H7.02694V27.7282C7.02694 28.518 7.67316 29.1642 8.46299 29.1642H12.7352C12.7711 29.1642 12.7951 29.1642 12.831 29.1642C13.3097 31.3183 15.2364 32.9219 17.534 32.9219C19.8317 32.9219 21.7465 31.3183 22.2371 29.1642H37.1481H39.4458C39.9364 31.3063 41.8512 32.9219 44.1488 32.9219C46.4465 32.9219 48.3613 31.3183 48.8519 29.1642H52.0591C52.8489 29.1642 53.4951 28.518 53.4951 27.7282V15.797C53.4951 12.6975 52.5976 10.0887 50.9222 8.26967ZM17.534 30.0617C16.457 30.0617 15.5834 29.1881 15.5834 28.1111C15.5834 27.0341 16.457 26.1605 17.534 26.1605C18.6111 26.1605 19.4847 27.0341 19.4847 28.1111C19.4847 29.1881 18.6111 30.0617 17.534 30.0617ZM44.1488 30.0617C43.0718 30.0617 42.1982 29.1881 42.1982 28.1111C42.1982 27.0341 43.0718 26.1605 44.1488 26.1605C45.2259 26.1605 46.0995 27.0341 46.0995 28.1111C46.0875 29.1881 45.2139 30.0617 44.1488 30.0617ZM50.623 26.3041H48.6126C47.8945 24.5449 46.1593 23.2884 44.1488 23.2884C42.1384 23.2884 40.4031 24.5329 39.6851 26.3041H38.5842V8.48508H44.6036C48.3732 8.48508 50.623 11.2255 50.623 15.8089V26.3041Z" fill="white"/>
</svg>
