<svg width="49" height="43" viewBox="0 0 49 43" fill="none" xmlns="http://www.w3.org/2000/svg">
<path d="M48.0726 14.6737C48.0726 14.4675 48.0235 14.271 47.9154 14.0942L40.7645 1.52106C40.5582 1.15762 40.1653 0.921875 39.7429 0.921875H8.31988C7.8975 0.921875 7.50459 1.1478 7.29831 1.52106L0.157164 14.0942C0.0589366 14.271 0 14.4675 0 14.6737C0 17.4929 1.69934 19.9093 4.12556 20.98V41.7158C4.12556 42.3641 4.65599 42.8945 5.30429 42.8945H11.8168C11.8266 42.8945 11.8364 42.8945 11.8462 42.8945H20.9814C20.9912 42.8945 21.0011 42.8945 21.0109 42.8945H42.7585C43.4068 42.8945 43.9372 42.3641 43.9372 41.7158V21.1273C43.9372 21.0782 43.9372 21.0389 43.9274 20.9996C46.3634 19.9289 48.0726 17.5027 48.0726 14.6737ZM9.00747 3.28916H39.0553L44.6444 13.1217H3.42814L9.00747 3.28916ZM34.2127 15.4694C33.8394 17.5911 31.9829 19.202 29.7531 19.202C27.5234 19.202 25.6669 17.5911 25.2936 15.4694H34.2127ZM22.7888 15.4694C22.4155 17.5911 20.559 19.202 18.3293 19.202C16.0995 19.202 14.243 17.5911 13.8599 15.4694H22.7888ZM2.43604 15.4694H11.3649C10.9917 17.5911 9.12534 19.202 6.89558 19.202C4.66581 19.2119 2.80931 17.5911 2.43604 15.4694ZM19.8027 40.5371H13.025V27.8166C13.025 26.8933 13.7715 26.1369 14.7047 26.1369H18.1328C19.0562 26.1369 19.8125 26.8834 19.8125 27.8166V40.5371H19.8027ZM41.5797 40.5371H22.1601V27.8166C22.1601 25.5967 20.3528 23.7794 18.123 23.7794H14.6948C12.4749 23.7794 10.6577 25.5868 10.6577 27.8166V40.5469H6.48302V21.5595C6.62054 21.5693 6.75806 21.5693 6.89558 21.5693C9.27269 21.5693 11.3748 20.3611 12.6124 18.5243C13.8501 20.3611 15.9522 21.5693 18.3293 21.5693C20.7064 21.5693 22.7986 20.3611 24.0461 18.5243C25.2838 20.3611 27.3859 21.5693 29.7531 21.5693C32.1302 21.5693 34.2225 20.3611 35.4602 18.5243C36.6978 20.3611 38.7999 21.5693 41.177 21.5693C41.3145 21.5693 41.4422 21.5595 41.5797 21.5595V40.5371ZM41.177 19.2119C38.9472 19.2119 37.0907 17.6009 36.7175 15.4792H45.6464C45.2633 17.5911 43.4068 19.2119 41.177 19.2119Z" fill="white"/>
</svg>
